<svg width="100%" height="100%" viewBox="0 0 70 70" fill="currentColor" xmlns="http://www.w3.org/2000/svg">
<path d="M21.8898 69.9988C16.6099 69.9954 11.5094 68.0825 7.52941 64.613C3.54947 61.1435 0.958691 56.3516 0.235144 51.1215C-0.488404 45.8915 0.704109 40.5762 3.59263 36.1565C6.48116 31.7368 10.8707 28.5109 15.9514 27.0742C19.6443 26.0167 23.5531 25.9684 27.271 26.9342L50.336 3.87508C51.5604 2.64216 53.0175 1.66464 54.6227 0.99924C56.2279 0.333836 57.9492 -0.00620763 59.6868 -0.00116544C62.4214 0.00115165 65.0433 1.08848 66.9769 3.0221C68.9105 4.95572 69.9978 7.57761 70.0002 10.3122C70.0047 12.0499 69.6647 13.7713 68.9999 15.3768C68.335 16.9823 67.3585 18.4401 66.1268 19.6659L64.1668 21.6259C63.0701 22.7151 61.5883 23.3282 60.0427 23.3322H55.4168V26.2488C55.4168 27.7959 54.8023 29.2797 53.7083 30.3736C52.6143 31.4676 51.1306 32.0822 49.5835 32.0822H46.6668V36.708C46.6689 37.4743 46.5189 38.2334 46.2255 38.9414C45.9321 39.6493 45.5012 40.292 44.9577 40.8322L43.0618 42.728C44.033 46.4441 43.9856 50.3532 42.9248 54.0447C41.731 58.2505 39.309 62.0043 35.9689 64.8253C32.6288 67.6463 28.5227 69.406 24.1764 69.8792C23.4167 69.9582 22.6535 69.9981 21.8898 69.9988ZM21.8898 32.0822C18.9035 32.0793 15.9758 32.91 13.436 34.4808C10.8963 36.0516 8.84549 38.3001 7.51438 40.9733C6.18328 43.6464 5.62475 46.6381 5.90168 49.6114C6.1786 52.5848 7.27999 55.4218 9.08185 57.8032C10.8837 60.1846 13.3145 62.0157 16.1006 63.0905C18.8867 64.1653 21.9175 64.441 24.8519 63.8867C27.7862 63.3324 30.5076 61.97 32.7096 59.953C34.9117 57.9359 36.507 55.3442 37.316 52.4697C38.226 49.3096 38.124 45.9439 37.0243 42.8447C36.8449 42.3271 36.8148 41.7694 36.9376 41.2355C37.0603 40.7016 37.331 40.2131 37.7185 39.8259L40.8335 36.708V32.0822C40.8335 30.5351 41.4481 29.0513 42.542 27.9574C43.636 26.8634 45.1197 26.2488 46.6668 26.2488H49.5835V23.3322C49.5835 21.7851 50.1981 20.3013 51.292 19.2074C52.386 18.1134 53.8697 17.4988 55.4168 17.4988H60.0427L62.0027 15.5388C62.6909 14.8539 63.2365 14.0393 63.608 13.1421C63.9794 12.245 64.1694 11.2832 64.1668 10.3122C64.1661 9.12474 63.6942 7.98612 62.8549 7.14621C62.0155 6.3063 60.8772 5.83371 59.6898 5.83217C58.7181 5.82978 57.7556 6.02008 56.858 6.39205C55.9603 6.76403 55.1453 7.31029 54.4602 7.99925L30.1614 32.2951C29.7736 32.6827 29.2845 32.9531 28.75 33.0753C28.2156 33.1976 27.6575 33.1668 27.1398 32.9863C25.4483 32.3908 23.6684 32.0851 21.8752 32.0822H21.8898ZM14.5835 52.4988C14.5835 53.0757 14.7546 53.6396 15.075 54.1192C15.3955 54.5989 15.8511 54.9727 16.384 55.1935C16.917 55.4142 17.5034 55.472 18.0692 55.3595C18.635 55.2469 19.1547 54.9691 19.5626 54.5612C19.9705 54.1533 20.2483 53.6336 20.3608 53.0678C20.4733 52.5021 20.4156 51.9156 20.1948 51.3827C19.9741 50.8497 19.6002 50.3942 19.1206 50.0737C18.6409 49.7532 18.077 49.5822 17.5002 49.5822C16.7266 49.5822 15.9848 49.8895 15.4378 50.4364C14.8908 50.9834 14.5835 51.7253 14.5835 52.4988Z" fill="currentColor"/>
</svg>
