<svg width="100%" height="100%" viewBox="0 0 27 28" fill="none" xmlns="http://www.w3.org/2000/svg">
<g clip-path="url(#clip0_52_2220)">
<path d="M25.5247 25.0237H5.70533C4.82926 25.0237 3.98907 24.6757 3.36959 24.0562C2.75012 23.4367 2.4021 22.5965 2.4021 21.7205V1.90112C2.4021 1.6091 2.2861 1.32904 2.0796 1.12255C1.87311 0.916055 1.59305 0.800049 1.30103 0.800049C1.009 0.800049 0.72894 0.916055 0.522449 1.12255C0.315957 1.32904 0.199951 1.6091 0.199951 1.90112L0.199951 21.7205C0.2017 23.1801 0.78229 24.5794 1.81437 25.6114C2.84645 26.6435 4.24575 27.2241 5.70533 27.2259H25.5247C25.8167 27.2259 26.0968 27.1098 26.3033 26.9034C26.5098 26.6969 26.6258 26.4168 26.6258 26.1248C26.6258 25.8328 26.5098 25.5527 26.3033 25.3462C26.0968 25.1397 25.8167 25.0237 25.5247 25.0237Z" fill="white"/>
<path d="M6.80652 22.8215C7.09854 22.8215 7.3786 22.7055 7.58509 22.499C7.79158 22.2926 7.90759 22.0125 7.90759 21.7205V14.0129C7.90759 13.7209 7.79158 13.4409 7.58509 13.2344C7.3786 13.0279 7.09854 12.9119 6.80652 12.9119C6.51449 12.9119 6.23443 13.0279 6.02794 13.2344C5.82145 13.4409 5.70544 13.7209 5.70544 14.0129V21.7205C5.70544 22.0125 5.82145 22.2926 6.02794 22.499C6.23443 22.7055 6.51449 22.8215 6.80652 22.8215Z" fill="white"/>
<path d="M11.2107 11.8108V21.7205C11.2107 22.0125 11.3267 22.2925 11.5332 22.499C11.7397 22.7055 12.0197 22.8215 12.3118 22.8215C12.6038 22.8215 12.8839 22.7055 13.0904 22.499C13.2968 22.2925 13.4129 22.0125 13.4129 21.7205V11.8108C13.4129 11.5188 13.2968 11.2387 13.0904 11.0322C12.8839 10.8257 12.6038 10.7097 12.3118 10.7097C12.0197 10.7097 11.7397 10.8257 11.5332 11.0322C11.3267 11.2387 11.2107 11.5188 11.2107 11.8108Z" fill="white"/>
<path d="M16.7162 15.1141V21.7211C16.7162 22.0132 16.8322 22.2933 17.0387 22.4998C17.2452 22.7063 17.5253 22.8223 17.8174 22.8223C18.1094 22.8223 18.3895 22.7063 18.596 22.4998C18.8025 22.2933 18.9185 22.0132 18.9185 21.7211V15.1141C18.9185 14.8221 18.8025 14.542 18.596 14.3355C18.3895 14.129 18.1094 14.0129 17.8174 14.0129C17.5253 14.0129 17.2452 14.129 17.0387 14.3355C16.8322 14.542 16.7162 14.8221 16.7162 15.1141Z" fill="white"/>
<path d="M22.2217 10.7097V21.7205C22.2217 22.0125 22.3377 22.2926 22.5442 22.499C22.7507 22.7055 23.0307 22.8215 23.3228 22.8215C23.6148 22.8215 23.8949 22.7055 24.1013 22.499C24.3078 22.2926 24.4238 22.0125 24.4238 21.7205V10.7097C24.4238 10.4177 24.3078 10.1376 24.1013 9.93114C23.8949 9.72465 23.6148 9.60864 23.3228 9.60864C23.0307 9.60864 22.7507 9.72465 22.5442 9.93114C22.3377 10.1376 22.2217 10.4177 22.2217 10.7097Z" fill="white"/>
<path d="M6.80604 10.7099C7.09804 10.7098 7.37806 10.5938 7.5845 10.3873L11.533 6.4388C11.7428 6.23887 12.0216 6.12735 12.3114 6.12735C12.6013 6.12735 12.88 6.23887 13.0899 6.4388L15.4814 8.83033C16.1009 9.44959 16.9409 9.79747 17.8168 9.79747C18.6927 9.79747 19.5327 9.44959 20.1522 8.83033L26.3028 2.67973C26.5034 2.47206 26.6143 2.19393 26.6118 1.90523C26.6093 1.61653 26.4935 1.34037 26.2894 1.13622C26.0852 0.93207 25.8091 0.816271 25.5204 0.813762C25.2317 0.811254 24.9535 0.922236 24.7459 1.12281L18.5953 7.27231C18.3888 7.47873 18.1088 7.59469 17.8168 7.59469C17.5248 7.59469 17.2448 7.47873 17.0383 7.27231L14.6468 4.88188C14.0274 4.26262 13.1873 3.91474 12.3114 3.91474C11.4355 3.91474 10.5955 4.26262 9.97604 4.88188L6.02758 8.83033C5.87364 8.98432 5.76881 9.18049 5.72634 9.39405C5.68388 9.6076 5.70568 9.82896 5.789 10.0301C5.87232 10.2313 6.01341 10.4032 6.19444 10.5242C6.37547 10.6452 6.5883 10.7098 6.80604 10.7099Z" fill="white"/>
</g>
<defs>
<clipPath id="clip0_52_2220">
<rect width="26.4258" height="26.4258" fill="white" transform="translate(0.199951 0.800049)"/>
</clipPath>
</defs>
</svg>
