<svg width="40" height="40" viewBox="0 0 40 40" fill="none" xmlns="http://www.w3.org/2000/svg">
<rect width="40" height="40" rx="20" fill="#A1A1A1"/>
<g clip-path="url(#clip0_1_212)">
<path d="M20 20C21.1867 20 22.3467 19.6481 23.3334 18.9888C24.3201 18.3295 25.0892 17.3925 25.5433 16.2961C25.9974 15.1997 26.1162 13.9933 25.8847 12.8295C25.6532 11.6656 25.0818 10.5965 24.2426 9.75736C23.4035 8.91825 22.3344 8.3468 21.1705 8.11529C20.0067 7.88378 18.8003 8.0026 17.7039 8.45673C16.6075 8.91085 15.6705 9.67989 15.0112 10.6666C14.3519 11.6533 14 12.8133 14 14C14.0016 15.5908 14.6342 17.116 15.7591 18.2409C16.884 19.3658 18.4092 19.9984 20 20ZM20 10C20.7911 10 21.5645 10.2346 22.2223 10.6741C22.8801 11.1136 23.3928 11.7384 23.6955 12.4693C23.9983 13.2002 24.0775 14.0044 23.9231 14.7804C23.7688 15.5563 23.3878 16.269 22.8284 16.8284C22.269 17.3878 21.5563 17.7688 20.7804 17.9231C20.0044 18.0775 19.2002 17.9983 18.4693 17.6955C17.7384 17.3928 17.1136 16.8801 16.6741 16.2223C16.2346 15.5645 16 14.7911 16 14C16 12.9391 16.4214 11.9217 17.1716 11.1716C17.9217 10.4214 18.9391 10 20 10Z" fill="white"/>
<path d="M20 22.0005C17.6139 22.0031 15.3262 22.9522 13.639 24.6395C11.9517 26.3267 11.0026 28.6144 11 31.0005C11 31.2657 11.1054 31.5201 11.2929 31.7076C11.4804 31.8951 11.7348 32.0005 12 32.0005C12.2652 32.0005 12.5196 31.8951 12.7071 31.7076C12.8946 31.5201 13 31.2657 13 31.0005C13 29.144 13.7375 27.3635 15.0503 26.0507C16.363 24.738 18.1435 24.0005 20 24.0005C21.8565 24.0005 23.637 24.738 24.9497 26.0507C26.2625 27.3635 27 29.144 27 31.0005C27 31.2657 27.1054 31.5201 27.2929 31.7076C27.4804 31.8951 27.7348 32.0005 28 32.0005C28.2652 32.0005 28.5196 31.8951 28.7071 31.7076C28.8946 31.5201 29 31.2657 29 31.0005C28.9974 28.6144 28.0483 26.3267 26.361 24.6395C24.6738 22.9522 22.3861 22.0031 20 22.0005Z" fill="white"/>
</g>
<defs>
<clipPath id="clip0_1_212">
<rect width="24" height="24" fill="white" transform="translate(8 8)"/>
</clipPath>
</defs>
</svg>
