<svg width="18" height="18" viewBox="0 0 24 24" fill="none" xmlns="http://www.w3.org/2000/svg">
<path d="M21.2099 15.8901C20.5737 17.3946 19.5786 18.7203 18.3117 19.7514C17.0448 20.7825 15.5446 21.4875 13.9423 21.8049C12.34 22.1222 10.6843 22.0422 9.12 21.5719C7.55572 21.1015 6.13048 20.2551 4.96887 19.1067C3.80727 17.9583 2.94467 16.5428 2.45649 14.984C1.96831 13.4252 1.86942 11.7706 2.16845 10.1647C2.46749 8.55886 3.15535 7.05071 4.1719 5.77211C5.18845 4.49351 6.50274 3.4834 7.99986 2.83008" stroke="#A1A1A1" stroke-width="1.99832" stroke-linecap="round" stroke-linejoin="round"/>
<path d="M21.9999 12C21.9999 10.6868 21.7413 9.38642 21.2387 8.17316C20.7362 6.95991 19.9996 5.85752 19.071 4.92893C18.1424 4.00035 17.04 3.26375 15.8268 2.7612C14.6135 2.25866 13.3132 2 11.9999 2V12H21.9999Z" stroke="#A1A1A1" stroke-width="1.99832" stroke-linecap="round" stroke-linejoin="round"/>
</svg>
