<svg width="18" height="18" viewBox="0 0 24 24" fill="none" xmlns="http://www.w3.org/2000/svg">
<g clip-path="url(#clip0_81_752)">
<path fill="current" d="M18.9998 2.00002H9.95584C9.19406 1.99767 8.44195 2.1706 7.7577 2.50545C7.07345 2.84029 6.47541 3.32806 6.00984 3.93102L0.209839 11.386C0.0732849 11.5616 -0.000854492 11.7776 -0.000854492 12C-0.000854492 12.2224 0.0732849 12.4385 0.209839 12.614L6.00984 20.069C6.47541 20.672 7.07345 21.1598 7.7577 21.4946C8.44195 21.8294 9.19406 22.0024 9.95584 22H18.9998C20.3254 21.9984 21.5963 21.4711 22.5336 20.5338C23.471 19.5965 23.9983 18.3256 23.9998 17V7.00002C23.9983 5.67443 23.471 4.40358 22.5336 3.46624C21.5963 2.52891 20.3254 2.00161 18.9998 2.00002ZM21.9998 17C21.9998 17.7957 21.6838 18.5587 21.1212 19.1213C20.5586 19.684 19.7955 20 18.9998 20H9.95584C9.49875 20.0016 9.04742 19.898 8.63679 19.6972C8.22616 19.4964 7.86725 19.2038 7.58784 18.842L2.26684 12L7.58784 5.15802C7.86725 4.79627 8.22616 4.50366 8.63679 4.30286C9.04742 4.10205 9.49875 3.99843 9.95584 4.00002H18.9998C19.7955 4.00002 20.5586 4.31609 21.1212 4.8787C21.6838 5.44131 21.9998 6.20437 21.9998 7.00002V17ZM17.2068 10.207L15.4138 12L17.2068 13.793C17.3024 13.8853 17.3785 13.9956 17.4309 14.1176C17.4833 14.2396 17.5109 14.3708 17.5121 14.5036C17.5132 14.6364 17.4879 14.7681 17.4377 14.891C17.3874 15.0139 17.3131 15.1255 17.2192 15.2194C17.1253 15.3133 17.0137 15.3876 16.8908 15.4378C16.7679 15.4881 16.6362 15.5134 16.5034 15.5123C16.3707 15.5111 16.2394 15.4835 16.1174 15.4311C15.9954 15.3787 15.8851 15.3025 15.7928 15.207L13.9998 13.414L12.2068 15.207C12.0182 15.3892 11.7656 15.49 11.5034 15.4877C11.2412 15.4854 10.9904 15.3803 10.805 15.1948C10.6196 15.0094 10.5144 14.7586 10.5122 14.4964C10.5099 14.2342 10.6107 13.9816 10.7928 13.793L12.5858 12L10.7928 10.207C10.6107 10.0184 10.5099 9.76582 10.5122 9.50362C10.5144 9.24143 10.6196 8.99061 10.805 8.80521C10.9904 8.6198 11.2412 8.51463 11.5034 8.51235C11.7656 8.51007 12.0182 8.61087 12.2068 8.79302L13.9998 10.586L15.7928 8.79302C15.9814 8.61087 16.234 8.51007 16.4962 8.51235C16.7584 8.51463 17.0093 8.6198 17.1947 8.80521C17.3801 8.99061 17.4852 9.24143 17.4875 9.50362C17.4898 9.76582 17.389 10.0184 17.2068 10.207Z"/>
</g>
<defs>
<clipPath id="clip0_81_752">
<rect width="24" height="24" fill="white"/>
</clipPath>
</defs>
</svg>
