<svg width="100%" height="100%" viewBox="0 0 70 70" fill="currentColor" xmlns="http://www.w3.org/2000/svg">
    <g clip-path="url(#clip0_50_335)">
        <path d="M55.4167 11.6667H52.2083C51.5314 8.37495 49.7403 5.41726 47.137 3.29209C44.5337 1.16693 41.2773 0.00424236 37.9167 0L32.0833 0C28.7227 0.00424236 25.4663 1.16693 22.863 3.29209C20.2597 5.41726 18.4686 8.37495 17.7917 11.6667H14.5833C10.717 11.6713 7.01038 13.2092 4.27647 15.9431C1.54257 18.677 0.00463125 22.3837 0 26.25L0 55.4167C0.00463125 59.283 1.54257 62.9896 4.27647 65.7235C7.01038 68.4574 10.717 69.9954 14.5833 70H55.4167C59.283 69.9954 62.9896 68.4574 65.7235 65.7235C68.4574 62.9896 69.9954 59.283 70 55.4167V26.25C69.9954 22.3837 68.4574 18.677 65.7235 15.9431C62.9896 13.2092 59.283 11.6713 55.4167 11.6667ZM32.0833 5.83333H37.9167C39.7199 5.84081 41.4768 6.40524 42.947 7.44942C44.4172 8.4936 45.5289 9.96652 46.13 11.6667H23.87C24.4711 9.96652 25.5828 8.4936 27.053 7.44942C28.5232 6.40524 30.2801 5.84081 32.0833 5.83333ZM14.5833 17.5H55.4167C57.7373 17.5 59.9629 18.4219 61.6039 20.0628C63.2448 21.7038 64.1667 23.9294 64.1667 26.25V35H5.83333V26.25C5.83333 23.9294 6.75521 21.7038 8.39615 20.0628C10.0371 18.4219 12.2627 17.5 14.5833 17.5ZM55.4167 64.1667H14.5833C12.2627 64.1667 10.0371 63.2448 8.39615 61.6039C6.75521 59.9629 5.83333 57.7373 5.83333 55.4167V40.8333H32.0833V43.75C32.0833 44.5235 32.3906 45.2654 32.9376 45.8124C33.4846 46.3594 34.2265 46.6667 35 46.6667C35.7735 46.6667 36.5154 46.3594 37.0624 45.8124C37.6094 45.2654 37.9167 44.5235 37.9167 43.75V40.8333H64.1667V55.4167C64.1667 57.7373 63.2448 59.9629 61.6039 61.6039C59.9629 63.2448 57.7373 64.1667 55.4167 64.1667Z" fill="currentColor"/>
    </g>
    <defs>
        <clipPath id="clip0_50_335">
            <rect width="100%" height="100%" fill="currentColor"/>
        </clipPath>
    </defs>
</svg>