<svg width="100%" height="100%" viewBox="0 0 24 24" fill="none" xmlns="http://www.w3.org/2000/svg">
<g clip-path="url(#clip0_81_728)">
<path d="M7.50504 23.9995C5.69479 23.9984 3.94604 23.3425 2.58149 22.153C1.21694 20.9634 0.328675 19.3205 0.0806015 17.5273C-0.167472 15.7341 0.24139 13.9118 1.23174 12.3964C2.22209 10.8811 3.72709 9.77511 5.46904 9.28253C6.73516 8.91996 8.07533 8.90338 9.35004 9.23453L17.258 1.32853C17.6778 0.905814 18.1774 0.570665 18.7278 0.342527C19.2781 0.114388 19.8683 -0.00219808 20.464 -0.000469334C21.4016 0.000325098 22.3005 0.373122 22.9635 1.03608C23.6264 1.69903 23.9992 2.59797 24 3.53553C24.0016 4.13132 23.885 4.72151 23.6571 5.27197C23.4291 5.82243 23.0943 6.32225 22.672 6.74253L22 7.41453C21.624 7.78797 21.116 7.99816 20.586 7.99953H19V8.99953C19 9.52996 18.7893 10.0387 18.4143 10.4137C18.0392 10.7888 17.5305 10.9995 17 10.9995H16V12.5855C16.0008 12.8483 15.9493 13.1085 15.8487 13.3513C15.7481 13.594 15.6004 13.8143 15.414 13.9995L14.764 14.6495C15.097 15.9236 15.0808 17.2639 14.717 18.5295C14.3078 19.9715 13.4774 21.2585 12.3322 22.2257C11.187 23.1929 9.77919 23.7963 8.28904 23.9585C8.02858 23.9856 7.7669 23.9993 7.50504 23.9995ZM7.50504 10.9995C6.48119 10.9985 5.47739 11.2834 4.60663 11.8219C3.73587 12.3605 3.03272 13.1314 2.57634 14.0479C2.11996 14.9644 1.92847 15.9901 2.02341 17.0096C2.11836 18.029 2.49598 19.0017 3.11376 19.8182C3.73154 20.6346 4.56496 21.2625 5.5202 21.631C6.47543 21.9994 7.51457 22.094 8.52063 21.9039C9.52668 21.7139 10.4597 21.2468 11.2147 20.5552C11.9697 19.8637 12.5167 18.9751 12.794 17.9895C13.106 16.9061 13.0711 15.7521 12.694 14.6895C12.6325 14.5121 12.6222 14.3209 12.6643 14.1378C12.7064 13.9548 12.7992 13.7873 12.932 13.6545L14 12.5855V10.9995C14 10.4691 14.2108 9.96039 14.5858 9.58532C14.9609 9.21025 15.4696 8.99953 16 8.99953H17V7.99953C17 7.4691 17.2108 6.96039 17.5858 6.58532C17.9609 6.21024 18.4696 5.99953 19 5.99953H20.586L21.258 5.32753C21.494 5.09268 21.6811 4.81339 21.8084 4.50581C21.9358 4.19822 22.0009 3.86844 22 3.53553C21.9998 3.12841 21.838 2.73803 21.5502 2.45006C21.2624 2.16209 20.8722 2.00006 20.465 1.99953C20.1319 1.99871 19.8019 2.06396 19.4941 2.19149C19.1864 2.31902 18.907 2.50632 18.672 2.74253L10.341 11.0725C10.2081 11.2054 10.0404 11.2981 9.85713 11.34C9.67389 11.382 9.48254 11.3714 9.30504 11.3095C8.72511 11.1053 8.11486 11.0005 7.50004 10.9995H7.50504ZM5.00004 17.9995C5.00004 18.1973 5.05869 18.3907 5.16857 18.5551C5.27845 18.7196 5.43463 18.8477 5.61736 18.9234C5.80008 18.9991 6.00115 19.0189 6.19513 18.9803C6.38911 18.9417 6.56729 18.8465 6.70715 18.7066C6.847 18.5668 6.94224 18.3886 6.98082 18.1946C7.01941 18.0006 6.99961 17.7996 6.92392 17.6168C6.84823 17.4341 6.72006 17.2779 6.55561 17.1681C6.39116 17.0582 6.19782 16.9995 6.00004 16.9995C5.73482 16.9995 5.48047 17.1049 5.29293 17.2924C5.1054 17.48 5.00004 17.7343 5.00004 17.9995Z" fill="currentColor"/>
</g>
<defs>
<clipPath id="clip0_81_728">
<rect width="24" height="24" fill="currentColor"/>
</clipPath>
</defs>
</svg>
