<svg width="100%" height="100%" viewBox="0 0 22 24" fill="none" xmlns="http://www.w3.org/2000/svg">
<path d="M13.0001 24C12.7837 24 12.5732 23.9298 12.4001 23.8L8.4001 20.8C8.27591 20.7069 8.1751 20.5861 8.10568 20.4472C8.03625 20.3084 8.0001 20.1552 8.0001 20V14.38L0.984103 6.487C0.485823 5.92488 0.160482 5.23082 0.0471826 4.48823C-0.0661168 3.74565 0.0374468 2.98615 0.345426 2.30101C0.653405 1.61588 1.15269 1.03426 1.78328 0.626066C2.41387 0.217873 3.14893 0.000474419 3.9001 0L18.1001 0C18.8512 0.000881051 19.5861 0.218639 20.2164 0.627107C20.8468 1.03557 21.3457 1.61737 21.6534 2.30259C21.961 2.9878 22.0643 3.74727 21.9507 4.48975C21.8371 5.23222 21.5115 5.9261 21.0131 6.488L14.0001 14.38V23C14.0001 23.2652 13.8947 23.5196 13.7072 23.7071C13.5197 23.8946 13.2653 24 13.0001 24ZM10.0001 19.5L12.0001 21V14C12.0003 13.7552 12.0903 13.5189 12.2531 13.336L19.5211 5.159C19.7635 4.88508 19.9216 4.54704 19.9765 4.18545C20.0315 3.82387 19.9809 3.4541 19.8309 3.12056C19.6808 2.78701 19.4377 2.50386 19.1307 2.30509C18.8237 2.10632 18.4658 2.00038 18.1001 2H3.9001C3.53455 2.00055 3.17692 2.10655 2.87011 2.30527C2.56329 2.50399 2.32031 2.78699 2.17031 3.12035C2.02031 3.45371 1.96966 3.82326 2.02443 4.18468C2.0792 4.5461 2.23707 4.88405 2.4791 5.158L9.7481 13.336C9.91052 13.519 10.0002 13.7553 10.0001 14V19.5Z" fill="currentColor"/>
</svg>
