<svg width="100%" height="100%" viewBox="0 0 18 18" fill="none" xmlns="http://www.w3.org/2000/svg">
<g clip-path="url(#clip0_52_2177)">
<path d="M16.1797 9.90259C16.0404 11.5499 15.3421 13.1002 14.2005 14.296C13.059 15.4919 11.5429 16.2616 9.90382 16.4773C8.26472 16.693 6.60112 16.3419 5.18902 15.4821C3.77693 14.6224 2.70122 13.3057 2.14036 11.7505C1.5795 10.1953 1.56721 8.49508 2.10552 6.93194C2.64383 5.36879 3.70039 4.03667 5.0999 3.15659C6.49942 2.2765 8.15776 1.90134 9.79981 2.09336C11.4419 2.28538 12.9689 3.03303 14.1276 4.21227H11.8717C11.6801 4.21227 11.4963 4.2884 11.3608 4.42391C11.2253 4.55942 11.1491 4.74321 11.1491 4.93485C11.1491 5.12649 11.2253 5.31028 11.3608 5.44579C11.4963 5.5813 11.6801 5.65743 11.8717 5.65743H14.8654C15.2212 5.65724 15.5624 5.51581 15.814 5.26421C16.0656 5.0126 16.207 4.67142 16.2072 4.3156V1.32195C16.2072 1.13031 16.1311 0.946514 15.9956 0.811004C15.8601 0.675494 15.6763 0.599365 15.4846 0.599365V0.599365C15.293 0.599365 15.1092 0.675494 14.9737 0.811004C14.8382 0.946514 14.762 1.13031 14.762 1.32195V2.82347C13.3087 1.5248 11.4598 0.754347 9.51428 0.636731C7.56879 0.519115 5.6405 1.06121 4.04129 2.17534C2.44208 3.28946 1.26545 4.91048 0.701711 6.77621C0.137968 8.64194 0.220074 10.6433 0.934748 12.4566C1.64942 14.2699 2.95488 15.7891 4.63998 16.7684C6.32507 17.7478 8.29128 18.1301 10.2206 17.8536C12.1499 17.577 13.9295 16.6577 15.2716 15.2443C16.6137 13.831 17.4398 12.0062 17.6162 10.0652C17.6256 9.96455 17.6138 9.86308 17.5818 9.76724C17.5497 9.6714 17.4981 9.58328 17.4301 9.50851C17.3621 9.43373 17.2793 9.37394 17.187 9.33293C17.0946 9.29192 16.9947 9.2706 16.8937 9.27033C16.7174 9.26821 16.5466 9.33178 16.4146 9.44866C16.2827 9.56553 16.1989 9.72735 16.1797 9.90259Z" fill="currentColor"/>
</g>
<defs>
<clipPath id="clip0_52_2177">
<rect width="17.3419" height="17.3419" fill="white" transform="translate(0.30957 0.599365)"/>
</clipPath>
</defs>
</svg>
