<svg width="24" height="24" viewBox="0 0 24 24" fill="none" xmlns="http://www.w3.org/2000/svg">
<g clip-path="url(#clip0_335_487)">
<path fill="current" d="M10.85 17.5831V17.5833L10.85 21.0833L10.85 21.0835C10.851 21.8979 11.1842 22.6777 11.7752 23.2523C12.366 23.8266 13.1661 24.149 13.9998 24.15H14L20 24.15L20.0002 24.15C20.8339 24.149 21.634 23.8266 22.2248 23.2523C22.8158 22.6777 23.149 21.8979 23.15 21.0835V21.0833L23.15 17.5833L23.15 17.5831C23.1492 16.9862 22.9695 16.4027 22.6333 15.9042C22.3155 15.433 21.8712 15.0571 21.35 14.8164V14.0833C21.35 12.9592 20.8906 11.882 20.0744 11.0884C19.2583 10.295 18.1523 9.85 17 9.85C15.8477 9.85 14.7417 10.295 13.9256 11.0884C13.1094 11.882 12.65 12.9592 12.65 14.0833V14.8164C12.1288 15.0571 11.6845 15.433 11.3667 15.9042C11.0305 16.4027 10.8508 16.9862 10.85 17.5831ZM14.15 14.0833C14.15 13.351 14.4492 12.6477 14.9832 12.1285C15.5174 11.6092 16.2428 11.3167 17 11.3167C17.7572 11.3167 18.4826 11.6092 19.0168 12.1285C19.5508 12.6477 19.85 13.351 19.85 14.0833V14.5167H14.15V14.0833ZM21.65 21.0833C21.65 21.5063 21.4772 21.9128 21.1682 22.2132C20.8591 22.5138 20.4389 22.6833 20 22.6833H14C13.5611 22.6833 13.1409 22.5138 12.8318 22.2132C12.5228 21.9128 12.35 21.5063 12.35 21.0833V17.5833C12.35 17.1604 12.5228 16.7538 12.8318 16.4534C13.1409 16.1529 13.5611 15.9833 14 15.9833H20C20.4389 15.9833 20.8591 16.1529 21.1682 16.4534C21.4772 16.7538 21.65 17.1604 21.65 17.5833V21.0833Z" stroke-width="0.3"/>
<path fill="current" stroke="current" d="M17 18C16.7348 18 16.4804 18.0527 16.2929 18.1464C16.1054 18.2402 16 18.3674 16 18.5V19.5C16 19.6326 16.1054 19.7598 16.2929 19.8536C16.4804 19.9473 16.7348 20 17 20C17.2652 20 17.5196 19.9473 17.7071 19.8536C17.8946 19.7598 18 19.6326 18 19.5V18.5C18 18.3674 17.8946 18.2402 17.7071 18.1464C17.5196 18.0527 17.2652 18 17 18Z"/>
<path fill="current" d="M2.00016 22.9999C2.00269 21.1625 2.61484 19.3779 3.74066 17.9258C4.86648 16.4737 6.44232 15.4362 8.22116 14.9759C8.34933 14.9469 8.47053 14.8929 8.57784 14.8171C8.68514 14.7412 8.77646 14.645 8.84657 14.5338C8.91668 14.4227 8.9642 14.2988 8.98644 14.1693C9.00868 14.0397 9.00518 13.9071 8.97616 13.7789C8.94714 13.6508 8.89316 13.5296 8.81729 13.4223C8.74143 13.315 8.64518 13.2236 8.53403 13.1535C8.42287 13.0834 8.299 13.0359 8.16948 13.0137C8.03996 12.9914 7.90733 12.9949 7.77916 13.0239C5.5502 13.5709 3.57043 14.8526 2.15913 16.6625C0.747841 18.4724 -0.0127026 20.7049 0.000160524 22.9999C0.000160524 23.2652 0.105517 23.5195 0.293054 23.7071C0.48059 23.8946 0.734944 23.9999 1.00016 23.9999C1.26538 23.9999 1.51973 23.8946 1.70727 23.7071C1.8948 23.5195 2.00016 23.2652 2.00016 22.9999ZM8.47416 10.9999C7.38636 10.9999 6.32299 10.6774 5.41852 10.073C4.51405 9.46868 3.8091 8.60969 3.39282 7.6047C2.97654 6.59971 2.86762 5.49384 3.07984 4.42695C3.29206 3.36005 3.81588 2.38004 4.58507 1.61085C5.35426 0.841665 6.33427 0.317841 7.40116 0.105622C8.46806 -0.106596 9.57393 0.00232205 10.5789 0.418604C11.5839 0.834886 12.4429 1.53983 13.0472 2.44431C13.6516 3.34878 13.9742 4.41214 13.9742 5.49994C13.9726 6.95815 13.3926 8.35617 12.3615 9.38728C11.3304 10.4184 9.93236 10.9984 8.47416 10.9999ZM8.47416 1.99994C7.78193 1.99994 7.10524 2.20521 6.52966 2.5898C5.95409 2.97438 5.50549 3.52101 5.24058 4.16055C4.97568 4.80009 4.90636 5.50382 5.04141 6.18276C5.17646 6.86169 5.5098 7.48533 5.99929 7.97482C6.48877 8.4643 7.11241 8.79764 7.79134 8.93269C8.47028 9.06774 9.17401 8.99843 9.81355 8.73352C10.4531 8.46861 10.9997 8.02001 11.3843 7.44444C11.7689 6.86887 11.9742 6.19218 11.9742 5.49994C11.9742 4.57168 11.6054 3.68145 10.949 3.02507C10.2927 2.36869 9.40242 1.99994 8.47416 1.99994Z" />
</g>
<defs>
<clipPath id="clip0_335_487">
<rect width="24" height="24" fill="white"/>
</clipPath>
</defs>
</svg>
