<svg width="24" height="24" viewBox="0 0 24 24" fill="none" xmlns="http://www.w3.org/2000/svg">
<path fill="current" d="M18 16C18.7911 16 19.5645 15.7654 20.2223 15.3259C20.8801 14.8864 21.3928 14.2616 21.6955 13.5307C21.9983 12.7998 22.0775 11.9956 21.9231 11.2196C21.7688 10.4437 21.3878 9.73098 20.8284 9.17157C20.269 8.61216 19.5563 8.2312 18.7804 8.07686C18.0044 7.92252 17.2002 8.00173 16.4693 8.30448C15.7384 8.60723 15.1136 9.11992 14.6741 9.77772C14.2346 10.4355 14 11.2089 14 12C14.0011 13.0605 14.4228 14.0773 15.1727 14.8273C15.9227 15.5772 16.9395 15.9989 18 16ZM18 9.33333C18.5274 9.33333 19.043 9.48973 19.4815 9.78275C19.9201 10.0758 20.2618 10.4922 20.4637 10.9795C20.6655 11.4668 20.7183 12.003 20.6154 12.5202C20.5125 13.0375 20.2586 13.5127 19.8856 13.8856C19.5127 14.2586 19.0375 14.5125 18.5202 14.6154C18.003 14.7183 17.4668 14.6655 16.9795 14.4637C16.4922 14.2618 16.0758 13.9201 15.7827 13.4815C15.4897 13.043 15.3333 12.5274 15.3333 12C15.3333 11.2928 15.6143 10.6145 16.1144 10.1144C16.6145 9.61429 17.2928 9.33333 18 9.33333Z"/>
<path fill="current" fill-rule="evenodd" clip-rule="evenodd" d="M14.8544 19.6804C15.7122 18.8585 16.8336 18.4 18 18.4C19.2377 18.4 20.4247 18.9162 21.2998 19.8352C22.175 20.7541 22.6667 22.0004 22.6667 23.3C22.6667 23.4857 22.7369 23.6637 22.8619 23.795C22.9869 23.9263 23.1565 24 23.3333 24C23.5101 24 23.6797 23.9263 23.8047 23.795C23.9298 23.6637 24 23.4857 24 23.3C23.9982 21.6297 23.3655 20.0284 22.2407 18.8473C21.1159 17.6662 19.5908 17.0019 18 17C16.6763 17.0015 15.398 17.4618 14.358 18.2969C14.5772 18.7305 14.7453 19.1943 14.8544 19.6804Z"/>
<path fill="current" d="M8 13C8.98891 13 9.9556 12.7068 10.7778 12.1573C11.6001 11.6079 12.241 10.827 12.6194 9.91342C12.9978 8.99979 13.0969 7.99445 12.9039 7.02455C12.711 6.05465 12.2348 5.16373 11.5355 4.46447C10.8363 3.76521 9.94535 3.289 8.97545 3.09608C8.00555 2.90315 7.00021 3.00217 6.08658 3.3806C5.17295 3.75904 4.39206 4.3999 3.84265 5.22215C3.29324 6.0444 3 7.01109 3 8C3.00132 9.32568 3.52853 10.5967 4.46593 11.5341C5.40332 12.4715 6.67432 12.9987 8 13ZM8 4.66667C8.65927 4.66667 9.30374 4.86217 9.8519 5.22844C10.4001 5.59471 10.8273 6.1153 11.0796 6.72439C11.3319 7.33348 11.3979 8.0037 11.2693 8.6503C11.1407 9.29691 10.8232 9.89085 10.357 10.357C9.89085 10.8232 9.2969 11.1407 8.6503 11.2693C8.0037 11.3979 7.33347 11.3319 6.72439 11.0796C6.1153 10.8273 5.59471 10.4001 5.22843 9.8519C4.86216 9.30374 4.66667 8.65927 4.66667 8C4.66667 7.11595 5.01786 6.2681 5.64298 5.64298C6.2681 5.01786 7.11594 4.66667 8 4.66667Z"/>
<path fill="current" d="M8 15C5.87899 15.0024 3.84553 15.8565 2.34574 17.3751C0.845963 18.8936 0.00235276 20.9525 0 23.1C0 23.3387 0.0936505 23.5676 0.260349 23.7364C0.427048 23.9052 0.653141 24 0.888889 24C1.12464 24 1.35073 23.9052 1.51743 23.7364C1.68413 23.5676 1.77778 23.3387 1.77778 23.1C1.77778 21.4291 2.43333 19.8267 3.60022 18.6452C4.76712 17.4637 6.34976 16.8 8 16.8C9.65024 16.8 11.2329 17.4637 12.3998 18.6452C13.5667 19.8267 14.2222 21.4291 14.2222 23.1C14.2222 23.3387 14.3159 23.5676 14.4826 23.7364C14.6493 23.9052 14.8754 24 15.1111 24C15.3469 24 15.573 23.9052 15.7397 23.7364C15.9064 23.5676 16 23.3387 16 23.1C15.9976 20.9525 15.154 18.8936 13.6543 17.3751C12.1545 15.8565 10.121 15.0024 8 15Z" />
</svg>
