<svg viewBox="0 0 24 24" fill="none" xmlns="http://www.w3.org/2000/svg" width="19" height="19" data-testid="calendar2"
     class="Input_icon__qkecR">
    <path fill-rule="evenodd" clip-rule="evenodd"
          d="M15.385 1.23V.924a.923.923 0 0 1 1.846 0v.308h.923A5.845 5.845 0 0 1 24 7.077v11.077A5.846 5.846 0 0 1 18.154 24H5.846A5.846 5.846 0 0 1 0 18.154V7.077A5.845 5.845 0 0 1 5.846 1.23h.923V.923a.923.923 0 0 1 1.846 0v.308h6.77Zm6.769 8.616H1.846v8.308a3.996 3.996 0 0 0 4 4h12.308a3.996 3.996 0 0 0 4-4V9.846ZM6.769 3.076h-.923c-1.06 0-2.079.422-2.828 1.173a3.996 3.996 0 0 0-1.172 2.828V8h20.308v-.923a3.996 3.996 0 0 0-4-4h-.923v.308a.923.923 0 0 1-1.846 0v-.308h-6.77v.308a.923.923 0 0 1-1.846 0v-.308Z"
          fill="currentColor"></path>
    <path d="M5.539 14.48a.923.923 0 1 0 0-1.845.923.923 0 0 0 0 1.846ZM5.539 18.75a.923.923 0 1 0 0-1.846.923.923 0 0 0 0 1.846ZM9.865 14.48a.923.923 0 1 0 0-1.845.923.923 0 0 0 0 1.846ZM9.865 18.75a.923.923 0 1 0 0-1.846.923.923 0 0 0 0 1.846ZM14.135 14.48a.923.923 0 1 0 0-1.845.923.923 0 0 0 0 1.846ZM14.135 18.75a.923.923 0 1 0 0-1.846.923.923 0 0 0 0 1.846ZM18.462 14.48a.923.923 0 1 0 0-1.845.923.923 0 0 0 0 1.846ZM18.462 18.75a.923.923 0 1 0 0-1.846.923.923 0 0 0 0 1.846Z"
          fill="currentColor"></path>
</svg>