<svg width="70" height="70" viewBox="0 0 70 70" fill="none" xmlns="http://www.w3.org/2000/svg">
<g clip-path="url(#clip0_1_24)">
<path d="M52.4998 47.15H52.5C54.8056 47.15 57.0589 46.4365 58.9748 45.1007C60.8907 43.7649 62.383 41.8669 63.264 39.6475C64.145 37.4282 64.3754 34.9865 63.9264 32.6308C63.4773 30.2752 62.3688 28.1105 60.74 26.4109C59.1112 24.7113 57.0351 23.553 54.774 23.0837C52.5129 22.6144 50.1692 22.8553 48.0396 23.7758C45.9102 24.6962 44.0911 26.2543 42.8118 28.2523C41.5325 30.2501 40.85 32.5983 40.85 35L40.85 35.0001C40.8531 38.2195 42.08 41.3073 44.2633 43.5856C46.4469 45.8641 49.409 47.1468 52.4998 47.15ZM52.5 27.15C53.9852 27.15 55.4376 27.6095 56.6736 28.4713C57.9096 29.3331 58.874 30.5587 59.4437 31.9939C60.0134 33.4291 60.1625 35.0087 59.872 36.5326C59.5815 38.0566 58.8646 39.4556 57.8129 40.5531C56.7612 41.6505 55.4221 42.397 53.9652 42.6994C52.5084 43.0018 50.9983 42.8467 49.6256 42.2533C48.2528 41.66 47.0784 40.6547 46.2517 39.3637C45.425 38.0726 44.9833 36.554 44.9833 35C44.9833 32.916 45.7767 30.9187 47.1871 29.4469C48.5973 27.9754 50.5086 27.15 52.5 27.15Z" fill="#308D92" stroke="#308D92" stroke-width="0.3"/>
<mask id="path-2-outside-1_1_24" maskUnits="userSpaceOnUse" x="40.188" y="48.5833" width="31" height="22" fill="black">
<rect fill="white" x="40.188" y="48.5833" width="31" height="22"/>
<path fill-rule="evenodd" clip-rule="evenodd" d="M42.8685 57.8598C42.8709 57.8574 42.8732 57.855 42.8755 57.8525C45.4281 55.1723 48.8901 53.6666 52.5 53.6666C56.1099 53.6666 59.5719 55.1723 62.1245 57.8525C64.6771 60.5327 66.1111 64.1679 66.1111 67.9583C66.1111 68.4997 66.316 69.019 66.6806 69.4019C67.0453 69.7848 67.5399 69.9999 68.0556 69.9999C68.5713 69.9999 69.0658 69.7848 69.4305 69.4019C69.7951 69.019 70 68.4997 70 67.9583C69.9949 63.0866 68.1495 58.4159 64.8687 54.9711C61.5879 51.5263 57.1397 49.5887 52.5 49.5833C48.3412 49.5881 44.3362 51.1454 41.188 53.949C41.8802 55.178 42.4462 56.4874 42.8685 57.8598Z"/>
</mask>
<path fill-rule="evenodd" clip-rule="evenodd" d="M42.8685 57.8598C42.8709 57.8574 42.8732 57.855 42.8755 57.8525C45.4281 55.1723 48.8901 53.6666 52.5 53.6666C56.1099 53.6666 59.5719 55.1723 62.1245 57.8525C64.6771 60.5327 66.1111 64.1679 66.1111 67.9583C66.1111 68.4997 66.316 69.019 66.6806 69.4019C67.0453 69.7848 67.5399 69.9999 68.0556 69.9999C68.5713 69.9999 69.0658 69.7848 69.4305 69.4019C69.7951 69.019 70 68.4997 70 67.9583C69.9949 63.0866 68.1495 58.4159 64.8687 54.9711C61.5879 51.5263 57.1397 49.5887 52.5 49.5833C48.3412 49.5881 44.3362 51.1454 41.188 53.949C41.8802 55.178 42.4462 56.4874 42.8685 57.8598Z" fill="#308D92"/>
<path d="M42.8685 57.8598L42.5818 57.9481L42.7326 58.438L43.0859 58.0666L42.8685 57.8598ZM42.8755 57.8525L42.6583 57.6456L42.6582 57.6456L42.8755 57.8525ZM62.1245 57.8525L61.9073 58.0594L62.1245 57.8525ZM66.6806 69.4019L66.8979 69.195L66.6806 69.4019ZM69.4305 69.4019L69.2133 69.195H69.2133L69.4305 69.4019ZM70 67.9583H70.3V67.9579L70 67.9583ZM64.8687 54.9711L65.0859 54.7642V54.7642L64.8687 54.9711ZM52.5 49.5833L52.5004 49.2833L52.4997 49.2833L52.5 49.5833ZM41.188 53.949L40.9885 53.725L40.808 53.8857L40.9266 54.0963L41.188 53.949ZM43.0859 58.0666C43.0882 58.0642 43.0905 58.0618 43.0928 58.0594L42.6582 57.6456C42.6559 57.6481 42.6535 57.6506 42.6512 57.6531L43.0859 58.0666ZM43.0927 58.0594C45.5903 55.437 48.9745 53.9666 52.5 53.9666V53.3666C48.8057 53.3666 45.2658 54.9077 42.6583 57.6456L43.0927 58.0594ZM52.5 53.9666C56.0255 53.9666 59.4097 55.437 61.9073 58.0594L62.3418 57.6456C59.7342 54.9077 56.1943 53.3666 52.5 53.3666V53.9666ZM61.9073 58.0594C64.4053 60.6824 65.8111 64.2428 65.8111 67.9583H66.4111C66.4111 64.0929 64.9489 60.3831 62.3418 57.6456L61.9073 58.0594ZM65.8111 67.9583C65.8111 68.5747 66.0442 69.1687 66.4634 69.6088L66.8979 69.195C66.5878 68.8694 66.4111 68.4248 66.4111 67.9583H65.8111ZM66.4634 69.6088C66.8831 70.0495 67.4554 70.2999 68.0556 70.2999V69.6999C67.6243 69.6999 67.2075 69.5202 66.8979 69.195L66.4634 69.6088ZM68.0556 70.2999C68.6557 70.2999 69.2281 70.0495 69.6477 69.6088L69.2133 69.195C68.9036 69.5202 68.4868 69.6999 68.0556 69.6999V70.2999ZM69.6477 69.6088C70.0669 69.1687 70.3 68.5747 70.3 67.9583H69.7C69.7 68.4248 69.5234 68.8694 69.2133 69.195L69.6477 69.6088ZM70.3 67.9579C70.2948 63.0114 68.4212 58.2662 65.0859 54.7642L64.6515 55.178C67.8778 58.5657 69.6949 63.1617 69.7 67.9586L70.3 67.9579ZM65.0859 54.7642C61.7502 51.2618 57.2244 49.2888 52.5004 49.2833L52.4997 49.8833C57.0551 49.8886 61.4256 51.7909 64.6515 55.178L65.0859 54.7642ZM52.4997 49.2833C48.2654 49.2882 44.1901 50.8739 40.9885 53.725L41.3875 54.1731C44.4824 51.417 48.417 49.888 52.5004 49.8833L52.4997 49.2833ZM40.9266 54.0963C41.6084 55.3067 42.1659 56.5964 42.5818 57.9481L43.1553 57.7716C42.7266 56.3784 42.152 55.0492 41.4494 53.8018L40.9266 54.0963Z" fill="#308D92" mask="url(#path-2-outside-1_1_24)"/>
<path d="M23.3333 37.9167C26.2176 37.9167 29.0372 37.0614 31.4354 35.4589C33.8336 33.8565 35.7028 31.5789 36.8066 28.9141C37.9103 26.2494 38.1991 23.3172 37.6364 20.4883C37.0737 17.6594 35.6848 15.0609 33.6453 13.0214C31.6058 10.9818 29.0073 9.59292 26.1784 9.03022C23.3495 8.46752 20.4173 8.75632 17.7525 9.8601C15.0878 10.9639 12.8102 12.8331 11.2077 15.2313C9.6053 17.6295 8.75 20.449 8.75 23.3333C8.75386 27.1999 10.2916 30.907 13.0256 33.641C15.7597 36.3751 19.4668 37.9128 23.3333 37.9167ZM23.3333 13.6111C25.2562 13.6111 27.1359 14.1813 28.7347 15.2496C30.3335 16.3179 31.5796 17.8363 32.3155 19.6128C33.0513 21.3893 33.2439 23.3441 32.8687 25.23C32.4936 27.116 31.5677 28.8483 30.208 30.208C28.8483 31.5677 27.116 32.4936 25.23 32.8687C23.3441 33.2439 21.3893 33.0513 19.6128 32.3155C17.8363 31.5796 16.3179 30.3335 15.2496 28.7347C14.1813 27.1359 13.6111 25.2562 13.6111 23.3333C13.6111 20.7548 14.6354 18.282 16.4587 16.4587C18.282 14.6354 20.7548 13.6111 23.3333 13.6111Z" fill="#308D92"/>
<path d="M23.3333 43.75C17.1471 43.7569 11.2161 46.2482 6.84175 50.6773C2.46739 55.1063 0.00686221 61.1114 0 67.375C0 68.0712 0.273147 68.7389 0.759353 69.2312C1.24556 69.7234 1.90499 70 2.59259 70C3.28019 70 3.93963 69.7234 4.42583 69.2312C4.91204 68.7389 5.18519 68.0712 5.18519 67.375C5.18519 62.5016 7.09722 57.8279 10.5007 54.3819C13.9041 50.9359 18.5201 49 23.3333 49C28.1465 49 32.7626 50.9359 36.166 54.3819C39.5695 57.8279 41.4815 62.5016 41.4815 67.375C41.4815 68.0712 41.7546 68.7389 42.2408 69.2312C42.727 69.7234 43.3865 70 44.0741 70C44.7617 70 45.4211 69.7234 45.9073 69.2312C46.3935 68.7389 46.6667 68.0712 46.6667 67.375C46.6598 61.1114 44.1993 55.1063 39.8249 50.6773C35.4506 46.2482 29.5196 43.7569 23.3333 43.75Z" fill="#308D92"/>
</g>
<defs>
<clipPath id="clip0_1_24">
<rect width="70" height="70" fill="white"/>
</clipPath>
</defs>
</svg>
