<svg width="24" height="24" viewBox="0 0 24 24" fill="#31D79B" xmlns="http://www.w3.org/2000/svg">
    <g clip-path="url(#clip0_1_177)">
        <path fill="currentColor"
              d="M5.972 22.2841C5.75341 22.284 5.54087 22.2123 5.3669 22.08C5.19292 21.9476 5.0671 21.762 5.00869 21.5513C4.95027 21.3407 4.96248 21.1167 5.04345 20.9137C5.12441 20.7106 5.26967 20.5397 5.457 20.4271C9 18.2991 9 13.7291 9 10.9991C9 10.2034 9.31607 9.44036 9.87868 8.87776C10.4413 8.31515 11.2044 7.99908 12 7.99908C12.7956 7.99908 13.5587 8.31515 14.1213 8.87776C14.6839 9.44036 15 10.2034 15 10.9991C15 11.2643 14.8946 11.5186 14.7071 11.7062C14.5196 11.8937 14.2652 11.9991 14 11.9991C13.7348 11.9991 13.4804 11.8937 13.2929 11.7062C13.1054 11.5186 13 11.2643 13 10.9991C13 10.7339 12.8946 10.4795 12.7071 10.292C12.5196 10.1044 12.2652 9.99908 12 9.99908C11.7348 9.99908 11.4804 10.1044 11.2929 10.292C11.1054 10.4795 11 10.7339 11 10.9991C11 13.9461 11 19.4331 6.486 22.1421C6.33068 22.2351 6.15303 22.2841 5.972 22.2841ZM10.935 23.7051C13.217 21.4051 14.55 18.1711 14.896 14.0841C14.9077 13.953 14.8933 13.8209 14.8538 13.6953C14.8143 13.5697 14.7504 13.4532 14.6658 13.3524C14.5811 13.2516 14.4774 13.1685 14.3606 13.1079C14.2438 13.0472 14.1161 13.0103 13.985 12.9991C13.8538 12.9856 13.7212 12.9987 13.5951 13.0376C13.4691 13.0764 13.3521 13.1403 13.2513 13.2253C13.1504 13.3103 13.0677 13.4147 13.008 13.5324C12.9483 13.65 12.913 13.7785 12.904 13.9101C12.593 17.5671 11.485 20.3101 9.516 22.2911C9.32902 22.4792 9.22445 22.734 9.2253 22.9993C9.22614 23.2645 9.33233 23.5186 9.5205 23.7056C9.70867 23.8926 9.96341 23.9971 10.2287 23.9963C10.494 23.9954 10.748 23.8892 10.935 23.7011V23.7051ZM16.135 23.5191C16.7416 22.5112 17.2467 21.4457 17.643 20.3381C17.7258 20.0904 17.7085 19.8201 17.5946 19.585C17.4808 19.3499 17.2794 19.1687 17.0337 19.0802C16.788 18.9916 16.5174 19.0027 16.2797 19.111C16.0421 19.2194 15.8562 19.4165 15.762 19.6601C15.4099 20.6421 14.9617 21.5871 14.424 22.4811C14.3558 22.5934 14.3105 22.7181 14.2905 22.848C14.2705 22.9778 14.2763 23.1104 14.3076 23.238C14.3388 23.3657 14.3949 23.4859 14.4726 23.5918C14.5503 23.6978 14.6482 23.7874 14.7605 23.8556C14.9874 23.9932 15.2597 24.0351 15.5174 23.972C15.6451 23.9407 15.7653 23.8847 15.8713 23.807C15.9772 23.7292 16.0668 23.6314 16.135 23.5191ZM18.5 17.1901C18.8705 15.148 19.038 13.0742 19 10.9991C18.9991 9.58237 18.5683 8.1993 17.7646 7.03263C16.9609 5.86597 15.8221 4.97062 14.4987 4.46492C13.1753 3.95921 11.7297 3.86695 10.3528 4.20033C8.97584 4.53371 7.73248 5.27704 6.787 6.33208C6.69492 6.42908 6.62323 6.54357 6.57618 6.66877C6.52913 6.79397 6.50768 6.92733 6.51308 7.06097C6.51849 7.19461 6.55065 7.3258 6.60766 7.44679C6.66467 7.56778 6.74537 7.67611 6.84499 7.76535C6.94461 7.8546 7.06111 7.92296 7.18762 7.96638C7.31412 8.0098 7.44805 8.0274 7.58148 8.01815C7.7149 8.00889 7.84512 7.97296 7.96441 7.91249C8.08371 7.85201 8.18966 7.76822 8.276 7.66608C8.95128 6.91235 9.83937 6.38128 10.8229 6.14304C11.8064 5.9048 12.8391 5.97062 13.7845 6.33178C14.7298 6.69295 15.5433 7.33246 16.1174 8.16581C16.6916 8.99915 16.9993 9.9871 17 10.9991C17.0369 12.9459 16.8821 14.8916 16.538 16.8081C16.4875 17.0682 16.5423 17.3378 16.6905 17.5576C16.8386 17.7773 17.0679 17.9293 17.328 17.9801C17.3915 17.9928 17.4562 17.9991 17.521 17.9991C17.7526 17.9985 17.9769 17.9175 18.1554 17.7699C18.334 17.6224 18.4558 17.4174 18.5 17.1901ZM7 10.9991C6.99971 10.72 7.02279 10.4413 7.069 10.1661C7.09886 10.0336 7.10141 9.89636 7.0765 9.76283C7.05158 9.6293 6.99972 9.50225 6.92409 9.38942C6.84845 9.27659 6.75062 9.18036 6.63657 9.10659C6.52251 9.03281 6.39462 8.98305 6.2607 8.96033C6.12678 8.93762 5.98963 8.94242 5.85763 8.97446C5.72563 9.00649 5.60154 9.06508 5.49293 9.14665C5.38431 9.22823 5.29346 9.33107 5.2259 9.44892C5.15835 9.56676 5.11551 9.69713 5.1 9.83208C5.03399 10.2176 5.00054 10.608 5 10.9991C5 15.6441 3.654 17.9991 1 17.9991C0.734784 17.9991 0.48043 18.1044 0.292893 18.292C0.105357 18.4795 0 18.7339 0 18.9991C0 19.2643 0.105357 19.5186 0.292893 19.7062C0.48043 19.8937 0.734784 19.9991 1 19.9991C4.869 19.9991 7 16.7991 7 10.9991ZM20.7 23.4131C22.3457 19.4872 23.13 15.2539 23 10.9991C23.0046 9.338 22.6283 7.69798 21.9 6.20508C21.8425 6.08689 21.7624 5.98117 21.6641 5.89396C21.5658 5.80676 21.4512 5.73977 21.327 5.69682C21.2028 5.65387 21.0714 5.63581 20.9402 5.64366C20.809 5.65151 20.6807 5.68512 20.5625 5.74257C20.4443 5.80003 20.3386 5.8802 20.2514 5.97851C20.1642 6.07682 20.0972 6.19134 20.0542 6.31554C20.0113 6.43974 19.9932 6.57118 20.0011 6.70236C20.0089 6.83354 20.0425 6.96189 20.1 7.08008C20.695 8.30065 21.0029 9.64119 21 10.9991C21.1259 14.9678 20.4035 18.9178 18.881 22.5851C18.8268 22.7048 18.7967 22.8341 18.7925 22.9655C18.7883 23.0968 18.8101 23.2278 18.8565 23.3507C18.9029 23.4737 18.9732 23.5863 19.0632 23.6821C19.1532 23.7779 19.2612 23.8551 19.381 23.9091C19.5105 23.9686 19.6514 23.9993 19.794 23.9991C19.9852 23.9983 20.1722 23.9426 20.3328 23.8388C20.4934 23.7349 20.6208 23.5872 20.7 23.4131ZM3 13.9991V10.9991C3.00265 8.61294 3.95171 6.32529 5.63896 4.63804C7.32622 2.95078 9.61386 2.00172 12 1.99907C13.9484 1.99258 15.8452 2.62485 17.4 3.79907C17.6122 3.9582 17.8789 4.02653 18.1414 3.98902C18.404 3.95152 18.6409 3.81125 18.8 3.59907C18.9591 3.3869 19.0275 3.1202 18.99 2.85765C18.9524 2.5951 18.8122 2.3582 18.6 2.19907C16.6994 0.764497 14.3812 -0.00821136 12 -0.000925508C9.08367 0.00251496 6.28778 1.16255 4.22563 3.2247C2.16347 5.28686 1.00344 8.08275 1 10.9991V13.9991C1 14.2643 1.10536 14.5186 1.29289 14.7062C1.48043 14.8937 1.73478 14.9991 2 14.9991C2.26522 14.9991 2.51957 14.8937 2.70711 14.7062C2.89464 14.5186 3 14.2643 3 13.9991Z"></path>
    </g>
    <defs>
        <clipPath id="clip0_1_177">
            <rect width="24" height="24" fill="white"></rect>
        </clipPath>
    </defs>
</svg>