<svg width="100%" height="100%" viewBox="0 0 18 18" fill="none" xmlns="http://www.w3.org/2000/svg">
<g clip-path="url(#clip0_242_2830)">
<path d="M16.5258 6.82387L11.1243 1.42171C10.4558 0.755161 9.55029 0.380859 8.60625 0.380859C7.66222 0.380859 6.7567 0.755161 6.08819 1.42171L0.686754 6.82387C0.487663 7.02168 0.329818 7.25705 0.222367 7.51632C0.114917 7.7756 0.0600003 8.05362 0.0607996 8.33427V15.3252C0.0607996 15.8918 0.28588 16.4352 0.686526 16.8358C1.08717 17.2365 1.63056 17.4615 2.19716 17.4615H15.0153C15.5819 17.4615 16.1253 17.2365 16.526 16.8358C16.9266 16.4352 17.1517 15.8918 17.1517 15.3252V8.33427C17.1525 8.05362 17.0976 7.7756 16.9901 7.51632C16.8827 7.25705 16.7248 7.02168 16.5258 6.82387ZM10.7426 16.0373H6.46989V13.2358C6.46989 12.6692 6.69497 12.1258 7.09562 11.7252C7.49626 11.3245 8.03966 11.0994 8.60625 11.0994C9.17285 11.0994 9.71625 11.3245 10.1169 11.7252C10.5175 12.1258 10.7426 12.6692 10.7426 13.2358V16.0373ZM15.7275 15.3252C15.7275 15.514 15.6524 15.6952 15.5189 15.8287C15.3853 15.9623 15.2042 16.0373 15.0153 16.0373H12.1669V13.2358C12.1669 12.2915 11.7917 11.3858 11.124 10.7181C10.4562 10.0503 9.55059 9.6752 8.60625 9.6752C7.66192 9.6752 6.75627 10.0503 6.08853 10.7181C5.42078 11.3858 5.04565 12.2915 5.04565 13.2358V16.0373H2.19716C2.0083 16.0373 1.82717 15.9623 1.69362 15.8287C1.56007 15.6952 1.48504 15.514 1.48504 15.3252V8.33427C1.4857 8.14555 1.56066 7.96467 1.69369 7.8308L7.09513 2.43079C7.49656 2.03124 8.03988 1.80693 8.60625 1.80693C9.17263 1.80693 9.71595 2.03124 10.1174 2.43079L15.5188 7.83294C15.6513 7.96628 15.7262 8.14629 15.7275 8.33427V15.3252Z" fill="currentColor"/>
</g>
<defs>
<clipPath id="clip0_242_2830">
<rect width="17.0909" height="17.0909" fill="white" transform="translate(0.0605469 0.365234)"/>
</clipPath>
</defs>
</svg>
